# Blender 4.2.3 LTS
# www.blender.org
mtllib screen.mtl
o Bildschirm
v -0.383763 2.681358 -0.486855
v -0.387726 2.682514 -0.487023
v -0.389002 2.683354 -0.487172
v -0.389885 2.684611 -0.487412
v -0.391195 2.688258 -0.488117
v -0.402998 3.011900 -0.552493
v -0.399150 3.013378 -0.552848
v -0.404193 3.010959 -0.552287
v -0.404956 3.009630 -0.552009
v -0.405925 3.005888 -0.551251
v 0.013895 2.702018 -0.497061
v 0.010081 2.699941 -0.496590
v 0.015080 2.703122 -0.497301
v 0.015843 2.704475 -0.497584
v 0.016808 2.708295 -0.498361
v -0.005120 3.027628 -0.561720
v -0.001118 3.025882 -0.561432
v 0.000158 3.024879 -0.561255
v 0.001051 3.023593 -0.561010
v 0.002356 3.019870 -0.560285
v -0.026001 2.695364 -0.495122
v -0.111201 2.688905 -0.492531
v -0.196468 2.683848 -0.490219
v -0.281860 2.681521 -0.488448
v -0.367358 2.681430 -0.487119
v -0.041480 3.029187 -0.561475
v -0.126953 3.028535 -0.560036
v -0.212355 3.026481 -0.558318
v -0.297637 3.021698 -0.556058
v -0.382808 3.014673 -0.553357
v -0.200216 2.772402 -0.492733
v -0.204126 2.858864 -0.505712
v -0.208161 2.943719 -0.526780
v -0.293467 2.939549 -0.524645
v -0.289523 2.854503 -0.507741
v -0.285584 2.769461 -0.490838
v -0.029801 2.779743 -0.507108
v -0.033678 2.863197 -0.523695
v -0.037540 2.946650 -0.540282
v -0.122798 2.946526 -0.528651
v -0.118854 2.861614 -0.511772
v -0.114920 2.776701 -0.494897
v -0.371148 2.765661 -0.499076
v -0.375011 2.848970 -0.515634
v -0.378873 2.932280 -0.532192
v -0.394875 2.767666 -0.503903
v -0.398555 2.847075 -0.519684
v -0.402240 2.926479 -0.535465
v 0.013195 2.786245 -0.513854
v 0.009582 2.864079 -0.529323
v 0.005974 2.941919 -0.544792
vn 0.0150 0.1956 0.9806
vn 0.0149 0.1957 0.9806
vn 0.0148 0.1960 0.9805
vn 0.0150 0.1957 0.9805
vn 0.0146 0.1953 0.9806
vn -0.0517 0.0989 0.9938
vn -0.0866 0.1636 0.9827
vn 0.0151 0.1955 0.9806
vn -0.0891 0.2169 0.9721
vn 0.0152 0.1954 0.9806
vn 0.0150 0.1958 0.9805
vn -0.0603 0.2837 0.9570
vn 0.0712 0.2795 0.9575
vn 0.0709 0.2243 0.9719
vn 0.0151 0.1956 0.9806
vn 0.0150 0.1955 0.9806
vn 0.0789 0.1146 0.9903
vn 0.0150 0.1959 0.9805
vn 0.0735 0.1708 0.9826
vn -0.1361 0.1733 0.9754
vn -0.1192 0.1882 0.9749
vn -0.1810 0.1836 0.9662
vn -0.0329 0.1179 0.9925
vn -0.0104 0.0547 0.9984
vn 0.1045 0.1566 0.9821
vn 0.0403 0.3323 0.9423
vn 0.0107 0.2889 0.9573
vn 0.0627 0.2717 0.9604
vn -0.0556 0.1922 0.9798
vn -0.0858 0.1435 0.9859
vn 0.1006 0.2401 0.9655
vn 0.0979 0.2123 0.9723
vn -0.0398 0.2674 0.9628
vn -0.0902 0.2366 0.9674
vn -0.1373 0.2007 0.9700
vn 0.0855 0.1980 0.9765
vn 0.1283 0.1991 0.9715
vn 0.0194 0.1004 0.9948
vn 0.0226 0.0293 0.9993
vn 0.0696 0.1221 0.9901
vn 0.0530 0.0574 0.9969
vn -0.0230 0.3300 0.9437
vn 0.0992 0.1845 0.9778
vn 0.1224 0.1989 0.9723
vn 0.0075 0.3564 0.9343
vt 0.974926 0.105404
vt 0.977887 0.107935
vt 0.979879 0.111120
vt 0.018325 0.108024
vt 0.027583 0.104724
vt 0.013482 0.113379
vt 0.066569 0.102820
vt 0.010867 0.122377
vt 0.015408 0.110221
vt 0.021041 0.902126
vt 0.018251 0.893180
vt 0.035326 0.910503
vt 0.025990 0.907388
vt 0.023028 0.905254
vt 0.074327 0.911666
vt 0.973199 0.896404
vt 0.887010 0.904739
vt 0.989915 0.876673
vt 0.987317 0.885856
vt 0.985369 0.889084
vt 0.982472 0.891672
vt 0.879241 0.094161
vt 0.965588 0.100839
vt 0.982676 0.120257
vt 0.011926 0.315175
vt 0.070471 0.507242
vt 0.013545 0.507792
vt 0.272683 0.299924
vt 0.269772 0.091148
vt 0.881012 0.297114
vt 0.683759 0.914964
vt 0.478785 0.710546
vt 0.680911 0.706489
vt 0.274353 0.505289
vt 0.068827 0.305326
vt 0.884891 0.701801
vt 0.988525 0.687356
vt 0.476811 0.503343
vt 0.276629 0.710657
vt 0.072700 0.709155
vt 0.015618 0.700394
vt 0.679280 0.501404
vt 0.883163 0.499458
vt 0.474816 0.296154
vt 0.472764 0.085924
vt 0.676988 0.296325
vt 0.675839 0.087837
vt 0.277703 0.919444
vt 0.984911 0.309562
vt 0.986854 0.498451
vt 0.480767 0.920772
s 1
f 11/1/1 13/2/2 14/3/3
f 2/4/4 1/5/1 4/6/5
f 1/5/1 25/7/6 5/8/7
f 4/6/5 1/5/1 5/8/7
f 4/6/5 3/9/1 2/4/4
f 9/10/8 10/11/9 7/12/10
f 9/10/8 7/12/10 6/13/11
f 6/13/11 8/14/4 9/10/8
f 30/15/12 7/12/10 10/11/9
f 16/16/11 26/17/13 20/18/14
f 16/16/11 20/18/14 19/19/1
f 18/20/15 17/21/16 19/19/1
f 17/21/16 16/16/11 19/19/1
f 21/22/17 12/23/18 15/24/19
f 14/3/3 15/24/19 12/23/18
f 12/23/18 11/1/1 14/3/3
f 46/25/20 44/26/21 47/27/22
f 36/28/23 25/7/6 24/29/24
f 15/24/19 37/30/25 21/22/17
f 27/31/26 33/32/27 40/33/28
f 35/34/29 43/35/30 36/28/23
f 20/18/14 39/36/31 51/37/32
f 32/38/1 34/39/33 35/34/29
f 45/40/34 10/11/9 48/41/35
f 26/17/13 40/33/28 39/36/31
f 39/36/31 41/42/36 38/43/37
f 40/33/28 32/38/1 41/42/36
f 31/44/38 24/29/24 23/45/39
f 42/46/40 32/38/1 31/44/38
f 37/30/25 41/42/36 42/46/40
f 35/34/29 45/40/34 44/26/21
f 5/8/7 43/35/30 46/25/20
f 44/26/21 48/41/35 47/27/22
f 21/22/17 42/46/40 22/47/41
f 34/39/33 30/15/12 45/40/34
f 33/32/27 29/48/42 34/39/33
f 49/49/43 38/43/37 37/30/25
f 51/37/32 38/43/37 50/50/44
f 22/47/41 31/44/38 23/45/39
f 32/38/1 36/28/23 31/44/38
f 46/25/20 43/35/30 44/26/21
f 36/28/23 43/35/30 25/7/6
f 15/24/19 49/49/43 37/30/25
f 27/31/26 28/51/45 33/32/27
f 35/34/29 44/26/21 43/35/30
f 20/18/14 26/17/13 39/36/31
f 32/38/1 33/32/27 34/39/33
f 45/40/34 30/15/12 10/11/9
f 26/17/13 27/31/26 40/33/28
f 39/36/31 40/33/28 41/42/36
f 40/33/28 33/32/27 32/38/1
f 31/44/38 36/28/23 24/29/24
f 42/46/40 41/42/36 32/38/1
f 37/30/25 38/43/37 41/42/36
f 35/34/29 34/39/33 45/40/34
f 5/8/7 25/7/6 43/35/30
f 44/26/21 45/40/34 48/41/35
f 21/22/17 37/30/25 42/46/40
f 34/39/33 29/48/42 30/15/12
f 33/32/27 28/51/45 29/48/42
f 49/49/43 50/50/44 38/43/37
f 51/37/32 39/36/31 38/43/37
f 22/47/41 42/46/40 31/44/38
f 32/38/1 35/34/29 36/28/23
